<svg xmlns="http://www.w3.org/2000/svg" xmlns:xlink="http://www.w3.org/1999/xlink" version="1.1" width="256" height="256" viewBox="0 0 256 256" xml:space="preserve">

<defs>
</defs>
<g style="stroke: none; stroke-width: 0; stroke-dasharray: none; stroke-linecap: butt; stroke-linejoin: miter; stroke-miterlimit: 10; fill: none; fill-rule: nonzero; opacity: 1;" transform="translate(1.4065934065934016 1.4065934065934016) scale(2.81 2.81)" >
	<circle cx="45.111000000000004" cy="46.231" r="39.731" style="stroke: none; stroke-width: 1; stroke-dasharray: none; stroke-linecap: butt; stroke-linejoin: miter; stroke-miterlimit: 10; fill: rgb(255,255,255); fill-rule: nonzero; opacity: 1;" transform="  matrix(1 0 0 1 0 0) "/>
	<path d="M 0 90 l 5.433 -23.57 C 1.871 59.866 0 52.516 0 45 C 0 20.187 20.187 0 45 0 c 24.813 0 45 20.187 45 45 c 0 24.813 -20.187 45 -45 45 c -7.516 0 -14.866 -1.871 -21.43 -5.434 L 0 90 z M 25.078 71.448 l 2.383 1.5 C 32.715 76.253 38.78 78 45 78 c 18.196 0 33 -14.804 33 -33 S 63.196 12 45 12 S 12 26.804 12 45 c 0 6.221 1.747 12.285 5.052 17.538 l 1.5 2.384 l -1.712 8.224 L 25.078 71.448 z" style="stroke: none; stroke-width: 1; stroke-dasharray: none; stroke-linecap: butt; stroke-linejoin: miter; stroke-miterlimit: 10; fill: rgb(255,62,250); fill-rule: nonzero; opacity: 1;" transform=" matrix(1 0 0 1 0 0) " stroke-linecap="round" />
	<path d="M 63.609 51.5 c -0.42 0 -0.85 -0.04 -1.27 -0.13 c -0.41 -0.08 -0.82 -0.21 -1.22 -0.37 c -0.391 -0.16 -0.771 -0.36 -1.12 -0.601 c -0.351 -0.229 -0.69 -0.5 -0.98 -0.8 c -0.31 -0.3 -0.58 -0.64 -0.81 -0.99 c -0.24 -0.35 -0.44 -0.729 -0.601 -1.119 c -0.17 -0.4 -0.29 -0.801 -0.369 -1.221 c -0.091 -0.42 -0.131 -0.85 -0.131 -1.27 c 0 -0.42 0.04 -0.85 0.131 -1.27 c 0.079 -0.41 0.199 -0.82 0.369 -1.22 c 0.16 -0.39 0.36 -0.77 0.591 -1.12 c 0.239 -0.35 0.51 -0.69 0.81 -0.99 c 0.3 -0.3 0.64 -0.57 0.99 -0.8 c 0.35 -0.24 0.729 -0.44 1.12 -0.6 c 0.399 -0.16 0.81 -0.29 1.22 -0.37 c 0.84 -0.17 1.7 -0.17 2.54 0 c 0.41 0.08 0.82 0.21 1.22 0.37 c 0.391 0.16 0.76 0.36 1.12 0.6 c 0.35 0.23 0.69 0.5 0.99 0.8 c 0.3 0.3 0.57 0.64 0.8 0.99 c 0.24 0.35 0.44 0.73 0.6 1.12 c 0.16 0.4 0.29 0.81 0.37 1.22 c 0.09 0.42 0.13 0.85 0.13 1.27 c 0 0.42 -0.04 0.85 -0.13 1.27 c -0.08 0.41 -0.21 0.82 -0.37 1.221 c -0.159 0.39 -0.359 0.77 -0.6 1.119 c -0.229 0.351 -0.5 0.69 -0.8 0.99 s -0.641 0.57 -0.99 0.8 c -0.36 0.24 -0.729 0.44 -1.12 0.601 c -0.399 0.16 -0.81 0.29 -1.22 0.37 C 64.46 51.46 64.03 51.5 63.609 51.5 z" style="stroke: none; stroke-width: 1; stroke-dasharray: none; stroke-linecap: butt; stroke-linejoin: miter; stroke-miterlimit: 10; fill: rgb(255,62,250); fill-rule: nonzero; opacity: 1;" transform=" matrix(1 0 0 1 0 0) " stroke-linecap="round" />
	<path d="M 45 51.5 c -0.42 0 -0.85 -0.04 -1.27 -0.13 c -0.41 -0.08 -0.82 -0.21 -1.22 -0.37 c -0.39 -0.16 -0.77 -0.36 -1.12 -0.601 c -0.35 -0.229 -0.69 -0.5 -0.99 -0.8 c -1.21 -1.21 -1.9 -2.89 -1.9 -4.6 c 0 -0.42 0.04 -0.85 0.13 -1.27 c 0.08 -0.41 0.2 -0.82 0.37 -1.22 c 0.16 -0.39 0.36 -0.77 0.6 -1.12 c 0.23 -0.35 0.5 -0.69 0.8 -0.99 c 0.3 -0.3 0.64 -0.57 0.99 -0.8 c 0.35 -0.24 0.73 -0.44 1.12 -0.6 c 0.4 -0.17 0.81 -0.29 1.22 -0.37 c 2.11 -0.43 4.36 0.26 5.87 1.77 c 0.3 0.3 0.57 0.64 0.8 0.99 c 0.24 0.35 0.44 0.73 0.601 1.12 c 0.16 0.4 0.29 0.81 0.37 1.22 c 0.09 0.42 0.13 0.85 0.13 1.27 c 0 1.71 -0.69 3.39 -1.91 4.6 C 48.39 50.81 46.71 51.5 45 51.5 z" style="stroke: none; stroke-width: 1; stroke-dasharray: none; stroke-linecap: butt; stroke-linejoin: miter; stroke-miterlimit: 10; fill: rgb(255,62,250); fill-rule: nonzero; opacity: 1;" transform=" matrix(1 0 0 1 0 0) " stroke-linecap="round" />
	<path d="M 26.39 51.5 c -0.42 0 -0.85 -0.04 -1.27 -0.13 c -0.41 -0.08 -0.82 -0.21 -1.22 -0.37 c -0.39 -0.16 -0.77 -0.36 -1.12 -0.601 c -0.35 -0.229 -0.69 -0.5 -0.99 -0.8 c -1.21 -1.21 -1.9 -2.89 -1.9 -4.6 c 0 -0.42 0.04 -0.85 0.13 -1.27 c 0.08 -0.41 0.2 -0.82 0.37 -1.22 c 0.16 -0.39 0.36 -0.77 0.6 -1.12 c 0.23 -0.35 0.5 -0.69 0.8 -0.99 c 0.3 -0.3 0.64 -0.57 0.99 -0.8 c 0.35 -0.24 0.73 -0.44 1.12 -0.6 c 0.4 -0.17 0.81 -0.29 1.22 -0.37 c 0.84 -0.17 1.7 -0.17 2.54 0 c 0.42 0.08 0.82 0.2 1.22 0.37 c 0.39 0.16 0.77 0.36 1.12 0.6 c 0.35 0.23 0.69 0.5 0.99 0.8 c 0.3 0.3 0.57 0.64 0.8 0.99 c 0.24 0.35 0.44 0.73 0.6 1.12 c 0.16 0.4 0.29 0.81 0.37 1.22 c 0.09 0.42 0.13 0.85 0.13 1.27 c 0 1.71 -0.69 3.39 -1.91 4.6 C 29.78 50.81 28.1 51.5 26.39 51.5 z" style="stroke: none; stroke-width: 1; stroke-dasharray: none; stroke-linecap: butt; stroke-linejoin: miter; stroke-miterlimit: 10; fill: rgb(255,62,250); fill-rule: nonzero; opacity: 1;" transform=" matrix(1 0 0 1 0 0) " stroke-linecap="round" />
</g>
</svg>